<svg width="326" height="60" viewBox="0 0 326 60" fill="none" xmlns="http://www.w3.org/2000/svg">
<rect width="326" height="60" fill="#000000"/>
<mask id="mask0_0_171" style="mask-type:alpha" maskUnits="userSpaceOnUse" x="0" y="0" width="65" height="59">
<path fill-rule="evenodd" clip-rule="evenodd" d="M50.5961 19.4427C50.3333 19.6649 49.9233 19.555 49.6313 19.6799C49.598 19.6941 49.566 19.7119 49.5359 19.7333C49.193 19.9783 49.5674 20.4299 49.7578 20.6685C50.0919 21.0881 51.0307 21.9152 51.6025 21.7669C51.9472 21.6775 52.0561 21.1529 52.0668 20.8514C52.0853 20.3145 51.931 19.4697 51.4273 19.1599C51.0414 18.9227 50.8685 19.2128 50.5961 19.4427ZM53.4203 21.4982C54.0722 22.01 55.0684 21.2469 54.309 20.6087C53.5723 19.9901 52.696 20.9298 53.4203 21.4982ZM47.8391 22.7873C47.4104 23.1003 47.2659 23.4479 47.3099 23.7781C47.4758 25.0248 50.3292 26.0302 50.7351 24.045C51.014 22.6783 48.7384 22.1305 47.8391 22.7873ZM30.3721 58.4508C30.0589 59.4064 27.8801 57.0435 28.9584 56.9554C29.4306 56.9167 30.6047 57.7414 30.3721 58.4508ZM31.0268 56.9345C30.6182 58.1821 27.7754 55.0984 29.1822 54.9834C29.7985 54.9328 31.3303 56.0089 31.0268 56.9345ZM28.4621 56.8186C28.647 57.5092 27.6999 59.0438 27.0827 58.6533C25.7779 57.8281 26.6606 56.237 26.9335 56.0536C27.243 55.8451 28.1512 55.6577 28.4621 56.8186ZM62.0601 41.2803C60.9731 41.1721 61.1682 39.5646 62.1537 40.2402C62.5856 40.5363 62.8669 41.3601 62.0601 41.2803ZM63.9173 41.5512C62.4989 41.4107 62.7529 39.3128 64.0392 40.1946C64.6026 40.581 64.9696 41.6557 63.9173 41.5512ZM61.8526 39.9122C61.4147 40.0956 59.2948 39.6404 59.1099 39.2116C58.7188 38.3047 60.8327 38.7134 61.221 38.8694C61.6612 39.046 62.5893 39.6043 61.8526 39.9122ZM56.4493 36.3906C55.9753 36.9243 53.3234 36.5311 53.1061 35.9085C52.81 35.06 55.3636 34.8944 55.9377 34.9884C56.5419 35.0874 56.9585 35.8172 56.4493 36.3906ZM52.3156 38.8489C51.0868 38.551 46.5518 37.8563 46.3336 36.3227C46.8776 36.2068 47.4767 36.6383 48.0313 36.7533C49.1267 36.98 50.2949 36.912 51.4065 37.0051C53.797 37.204 56.0021 38.0661 57.9126 39.4962C58.6502 40.0486 60.6673 42.0963 58.4093 41.314C56.3117 40.5869 54.5106 39.3808 52.3156 38.8489ZM32.808 13.8123C32.5907 12.104 33.4646 10.8304 33.7862 9.24974C33.8997 8.69094 34.0999 5.6059 32.372 6.10403C30.4578 6.65599 31.7353 9.55172 31.9851 10.7131C32.5634 13.4063 31.3202 15.6315 31.1181 18.1358C33.7227 17.3001 33.0286 15.5416 32.808 13.8123ZM22.3221 14.6799C22.6247 13.8296 21.0117 13.134 20.6721 13.7033C20.1943 14.5038 22.0793 15.3614 22.3221 14.6799ZM24.0236 17.2595C24.5754 16.4019 22.6279 16.0046 22.6604 15.8272C22.5468 16.4462 23.5542 17.9894 24.0236 17.2595ZM34.7083 1.96935C36.6118 1.88222 34.6054 0.0726171 33.0684 0.00328008C30.9073 -0.0947954 33.1824 2.0396 34.7083 1.96935ZM33.9511 4.68171C36.3435 4.82403 33.2311 2.83196 33.5707 2.78497C32.3882 2.94828 31.9146 4.56082 33.9511 4.68171ZM5.41953 51.3747C5.43621 51.7524 5.10491 51.8542 5.02845 52.1434C5.01965 52.1767 5.01409 52.2122 5.01316 52.251C5.00019 52.6962 5.578 52.9777 5.87919 53.131C6.40742 53.4001 7.61727 53.781 7.84292 53.3166C7.97869 53.037 7.63302 52.4198 7.40273 52.0918C6.99311 51.5093 6.23876 50.69 5.69477 50.6284C5.27774 50.5819 5.40193 50.9838 5.41953 51.3747ZM3.57396 55.441C3.72872 55.5879 3.91082 55.6818 4.0818 55.6723C4.46593 55.6508 4.71615 55.155 4.77082 54.744C4.8028 54.5008 4.8533 54.4132 5.02289 54.3051C5.15032 54.2239 5.54742 54.1532 5.50062 53.88C5.44224 53.536 5.08081 53.5324 4.92883 53.5775C4.62023 53.6688 4.52849 54.0187 4.39828 54.3211C4.28661 54.5802 4.0489 54.499 3.81352 54.4046C3.54338 54.296 3.27694 54.1706 3.20883 54.5236C3.16481 54.7522 3.25285 55.0131 3.39927 55.2298C3.28945 55.1294 3.15322 55.0469 2.98549 54.9985C2.05969 54.7321 2.27237 56.2032 3.15091 56.4226C3.71436 56.5631 3.87236 55.9218 3.57396 55.441ZM8.71914 52.059C9.51011 52.2565 9.50779 50.9094 8.55326 50.6348C7.62792 50.3684 7.84061 51.8391 8.71914 52.059ZM12.5303 51.7766C12.212 52.3304 11.8436 52.7159 11.39 53.1191C11.2486 53.245 10.175 54.0743 10.6616 54.3932C11.3464 54.8425 12.439 52.6693 12.7504 52.3135C13.1026 51.9116 13.5316 51.4158 13.6716 50.8041C13.1605 50.6239 12.7388 51.4135 12.5303 51.7766ZM11.4303 54.8174C11.0832 54.6258 10.5351 55.0199 11.0267 55.472C11.605 56.0034 11.3307 54.7622 11.4303 54.8174ZM14.2827 54.6153C14.6006 55.2298 14.9472 55.5559 15.2739 55.6713C16.5074 56.1065 17.4559 53.5356 15.4805 52.1224C14.121 51.1498 13.616 53.3257 14.2827 54.6153ZM14.1627 21.0918C13.9987 22.2158 12.4214 21.8809 12.6322 20.7122C12.6707 20.5001 12.7486 20.3464 12.8482 20.2369C12.6253 20.3478 12.3501 20.3578 12.0985 20.1991C11.7097 19.9536 11.8232 19.638 11.9182 19.31C12.0007 19.024 12.0688 18.7288 11.7783 18.4634C11.4396 18.1536 11.0522 17.8767 10.9271 17.4096C10.8654 17.1797 10.839 16.6807 11.2069 16.7468C11.4998 16.7988 11.6096 17.3795 11.7083 17.5912C11.8399 17.8722 11.9391 17.9794 12.2055 18.1281C12.6559 18.3794 13.2147 18.9387 13.2703 19.4806C13.2953 19.7219 13.2087 19.9336 13.0622 20.0855C13.5585 19.877 14.2679 20.371 14.1627 21.0918ZM58.4788 43.52C59.2633 43.5656 61.5361 43.3996 60.8128 44.7676C60.1325 46.054 58.799 45.1207 58.343 44.9547C56.9849 44.4611 57.3496 46.2123 56.137 46.5608C55.517 46.7392 55.4614 46.2379 54.821 46.9914C54.6269 47.22 54.498 47.5201 54.201 47.6588C53.8744 47.8112 53.5292 47.5826 53.3531 47.4868C52.6701 47.116 52.7831 46.4655 53.2131 45.5354C53.3591 45.2197 53.7979 44.6427 53.6672 44.4086C53.5301 44.1623 53.228 44.4679 52.9268 44.5473C52.6302 44.6253 52.2354 44.5551 52.2113 44.2992C52.1595 43.7458 53.2803 43.3152 53.5792 42.8691C53.9531 42.3107 53.0968 42.5096 52.8008 42.5315C52.3499 42.5644 51.5483 42.3956 52.4866 41.8386C53.057 41.5001 53.5709 41.5321 53.9731 41.6456C54.1755 41.7031 54.3294 41.8427 54.5365 41.887C54.8219 41.9472 54.8697 41.8724 55.2649 41.6958C56.0758 41.3332 56.2417 42.178 56.4395 42.542C56.7708 43.151 57.6415 43.4699 58.4723 43.5196C58.4746 43.5196 58.4765 43.5196 58.4788 43.52ZM4.16521 25.8322C3.18612 26.1402 0.666353 27.2924 0.077418 25.7807C-0.475838 24.3593 2.09305 24.581 2.80941 24.523C4.94227 24.3506 2.65789 22.9881 3.72779 22.1469C4.27503 21.7172 4.87091 22.1286 4.83338 21.1885C4.82226 20.9038 4.65776 20.5854 4.86303 20.3332C5.08962 20.0554 5.74064 20.1014 6.0511 20.1069C7.25353 20.127 7.80678 20.7433 8.27987 21.7432C8.44066 22.083 8.53055 22.78 8.93275 22.9256C9.35627 23.0793 9.39148 22.6792 9.66487 22.4767C9.93408 22.2773 10.4762 22.1633 10.7755 22.3754C11.4219 22.8343 10.548 23.7061 10.6653 24.227C10.8122 24.8784 11.6175 24.326 11.946 24.1754C12.4455 23.9469 13.5752 23.7384 13.0507 24.6398C12.7323 25.1868 12.0892 25.387 11.4914 25.4664C11.1912 25.5061 10.8608 25.4527 10.5684 25.5061C10.1658 25.5804 10.1889 25.6667 9.90674 25.9955C9.328 26.6707 8.23771 26.0088 7.61819 25.7798C6.58165 25.3961 5.21195 25.5047 4.17355 25.83C4.17077 25.8304 4.16799 25.8313 4.16521 25.8322ZM50.5465 12.702C49.8459 12.5077 49.9395 12.5464 49.364 12.9328C48.8149 13.3009 46.8544 14.6941 48.5114 14.913C49.1235 14.9938 49.4919 14.5134 50.0081 14.3136C50.4547 14.1412 51.4913 14.2954 51.8263 13.9861C52.6367 13.2357 51.0997 12.8557 50.5465 12.702ZM47.2038 16.1351C47.5745 15.3806 46.7696 14.9409 46.8442 14.2406C46.9262 13.4702 50.2958 11.1761 47.6352 10.8869C45.5635 10.6616 45.3767 13.9879 44.3865 15.1137C43.8852 15.683 41.744 17.5565 41.8751 18.4059C42.0642 19.6334 43.9417 17.7257 44.4417 17.4931C45.1854 17.1469 46.8039 16.948 47.2038 16.1351ZM37.2869 16.2788C37.6817 16.625 38.2678 16.7336 39.025 16.4006C40.9711 15.5444 40.4855 10.5498 37.6599 12.7143C36.476 13.6212 36.4232 15.5202 37.2869 16.2788ZM17.4855 45.2069C17.4137 44.6969 16.3934 44.1929 15.8003 44.2736C15.2072 44.3544 14.7841 44.8338 14.8559 45.3442C14.9273 45.8547 15.4666 46.2027 16.0597 46.122C16.6528 46.0413 17.5569 45.7174 17.4855 45.2069ZM12.9793 45.0993C11.3566 44.3019 8.56901 44.8607 8.07044 45.8437C7.57232 46.8272 8.48376 48.2705 10.1065 49.0679C11.7296 49.8648 13.4492 49.7143 13.9473 48.7313C14.4459 47.7482 14.602 45.8966 12.9793 45.0993ZM49.1842 33.9346C49.8463 34.0491 50.0512 34.0104 50.5266 33.4611C50.7689 33.1811 50.6753 32.8216 51.0659 32.5297C51.4695 32.2281 51.9167 32.3317 52.3606 32.2213C53.2247 32.0064 53.7706 31.6967 54.1199 30.7958C54.7033 29.2891 53.9698 27.3951 52.3221 26.9622C50.2708 26.423 49.3547 28.7348 48.1963 29.9021C47.4364 30.6676 46.5481 31.4198 45.6761 32.0571C45.3281 32.3116 42.5572 34.2946 44.6289 34.2321C45.5241 34.2051 45.993 33.7631 46.8159 33.6021C47.0462 33.5569 47.2779 33.5547 47.5096 33.5779C48.0744 33.6345 48.6384 33.8407 49.1842 33.9346ZM38.2711 51.1175C37.9101 50.9829 37.5658 50.8255 37.267 50.6408C36.5515 50.1983 35.9352 49.6272 35.0428 49.5327C34.193 49.4429 34.237 50.3324 34.1851 50.961C34.0804 52.2346 34.0869 53.7212 34.4446 54.9643C35.0521 57.0763 36.4843 57.9599 38.7335 57.4586C39.9021 57.1981 41.9645 56.4578 42.1615 55.1253C42.3779 53.6565 41.5975 51.9413 40.0175 51.606C39.4693 51.4892 38.8484 51.3328 38.2711 51.1175ZM8.78216 27.3317C6.46905 27.9808 4.61745 31.9211 6.04461 33.9866C7.31701 35.8286 9.34746 35.0801 10.2492 33.4771C10.6843 32.7039 10.9308 31.4472 11.7143 30.9335C12.2815 30.5618 13.6146 30.9545 13.9714 30.3642C14.8879 28.837 9.76635 27.0557 8.78216 27.3317ZM27.9733 20.8705C27.9918 21.6346 27.8889 22.4895 28.881 22.5086C28.1707 22.4949 32.5221 11.0676 26.8983 11.9936C22.4236 12.7316 27.5285 18.3872 27.9279 20.3765C27.9589 20.5293 27.9691 20.6977 27.9733 20.8705ZM24.91 24.1093C26.6314 23.7257 28.0154 26.9781 29.8819 25.0901C30.5792 24.3844 30.6112 21.3938 32.132 21.8864C32.7612 22.0903 32.3488 23.0551 33.2371 22.8594C33.8747 22.7194 33.9553 21.6442 34.0809 21.1816C34.3121 20.3304 34.0698 17.2413 35.0678 16.9389C37.033 16.3436 35.4436 19.9796 35.5052 20.6575C36.4941 20.8468 37.3026 20.2182 38.2414 20.1138C39.1394 20.0139 40.1889 20.2214 41.0452 20.4732C42.7027 20.9609 44.2943 21.9685 45.0644 23.5414C45.9759 25.4034 45.2609 27.0183 44.0789 28.5528C43.1595 29.747 40.8779 31.4713 41.2755 33.1528C41.5642 33.1605 41.7973 33.3558 42.0961 33.3466C42.5715 34.1536 41.4752 34.2102 41.6383 35.1188C41.7722 35.8656 42.9348 36.4846 43.261 37.1985C43.7527 38.2764 43.4376 38.5939 44.824 38.9109C45.5097 39.0679 46.9624 38.6838 47.3706 39.4013C47.9086 40.3469 46.4828 40.6576 46.6139 41.5362C48.1226 42.1848 49.4516 44.1313 49.7782 45.6768C50.2323 47.8258 48.9502 48.3723 47.3618 49.3179C46.2803 49.9615 46.7154 49.6167 46.6491 50.8688C46.5574 52.6077 45.5079 53.4188 43.9074 51.8295C42.8792 50.8082 42.5428 48.2464 41.099 47.6574C38.7233 46.6881 41.1555 49.6459 40.4415 50.446C39.5217 51.4778 38.8215 48.7869 38.4559 48.339C37.6539 47.3568 36.6173 47.2615 35.4886 46.6876C34.75 46.3122 33.7343 45.0423 33.1894 46.5549C32.6139 48.1533 34.1638 47.9407 32.2371 48.5251C31.139 48.8581 31.1204 48.88 30.6928 49.8292C30.5 50.2567 30.7317 50.6513 30.437 51.1498C30.19 51.5677 29.6103 51.7698 29.2934 52.1388C28.7828 52.7336 28.5803 53.458 28.147 54.1021C27.3 55.3607 26.0712 56.1125 24.5092 55.6581C22.1914 54.9834 23.3582 52.5694 23.9791 51.0887C24.2979 50.3278 24.8567 49.3434 24.1561 48.5867C23.4328 47.8052 22.7609 48.1679 22.3226 48.9288C21.7619 49.9022 22.3972 51.0559 21.3898 51.9326C20.527 52.6839 18.8691 52.7227 18.2908 51.6192C17.4906 50.0915 19.2431 48.4265 20.1327 47.371C20.5423 46.8847 21.3351 46.3747 21.0275 45.6467C20.8741 45.284 19.5132 44.7394 19.3478 45.2275C19.6786 44.2522 20.4798 42.9024 19.4469 42.3536C19.1198 42.1803 18.3464 42.5612 17.8937 42.3969C17.4318 42.2295 17.3136 41.5613 16.796 41.4372C15.9115 41.2251 14.6822 42.1141 13.7156 42.157C12.5882 42.2063 10.6027 42.1274 9.75893 41.2885C7.14417 38.6874 13.7137 36.428 15.3221 35.7306C16.1149 35.3871 17.8164 34.7343 17.0601 33.7882C16.4587 33.036 14.5756 33.8753 15.8077 32.1141C16.2956 31.4166 18.6462 31.3108 18.6967 30.5827C18.7588 29.6877 17.2399 29.8483 17.2988 28.759C17.3576 27.6669 19.0633 27.6259 18.2779 26.4107C17.9688 25.9321 15.4977 25.2237 16.739 24.0888C17.5152 23.3794 18.5068 25.1019 19.4474 25.0609C20.2787 25.0244 18.5781 21.979 18.4396 21.7687C17.5958 20.4883 16.6403 19.2899 16.7599 17.6423C16.8748 16.0639 17.8177 15.8048 19.0447 16.8139C21.2086 18.5934 20.4765 24.7967 24.2886 24.2247C24.5361 24.1878 24.739 24.1472 24.91 24.1093Z" fill="white"/>
</mask>
<g mask="url(#mask0_0_171)">
<path fill-rule="evenodd" clip-rule="evenodd" d="M50.5961 19.4427C50.3333 19.6649 49.9233 19.555 49.6313 19.6799C49.598 19.6941 49.566 19.7119 49.5359 19.7333C49.193 19.9783 49.5674 20.4299 49.7578 20.6685C50.0919 21.0881 51.0307 21.9152 51.6025 21.7669C51.9472 21.6775 52.0561 21.1529 52.0668 20.8514C52.0853 20.3145 51.931 19.4697 51.4273 19.1599C51.0414 18.9227 50.8685 19.2128 50.5961 19.4427ZM53.4203 21.4982C54.0722 22.01 55.0684 21.2469 54.309 20.6087C53.5723 19.9901 52.696 20.9298 53.4203 21.4982ZM47.8391 22.7873C47.4104 23.1003 47.2659 23.4479 47.3099 23.7781C47.4758 25.0248 50.3292 26.0302 50.7351 24.045C51.014 22.6783 48.7384 22.1305 47.8391 22.7873ZM30.3721 58.4508C30.0589 59.4064 27.8801 57.0435 28.9584 56.9554C29.4306 56.9167 30.6047 57.7414 30.3721 58.4508ZM31.0268 56.9345C30.6182 58.1821 27.7754 55.0984 29.1822 54.9834C29.7985 54.9328 31.3303 56.0089 31.0268 56.9345ZM28.4621 56.8186C28.647 57.5092 27.6999 59.0438 27.0827 58.6533C25.7779 57.8281 26.6606 56.237 26.9335 56.0536C27.243 55.8451 28.1512 55.6577 28.4621 56.8186ZM62.0601 41.2803C60.9731 41.1721 61.1682 39.5646 62.1537 40.2402C62.5856 40.5363 62.8669 41.3601 62.0601 41.2803ZM63.9173 41.5512C62.4989 41.4107 62.7529 39.3128 64.0392 40.1946C64.6026 40.581 64.9696 41.6557 63.9173 41.5512ZM61.8526 39.9122C61.4147 40.0956 59.2948 39.6404 59.1099 39.2116C58.7188 38.3047 60.8327 38.7134 61.221 38.8694C61.6612 39.046 62.5893 39.6043 61.8526 39.9122ZM56.4493 36.3906C55.9753 36.9243 53.3234 36.5311 53.1061 35.9085C52.81 35.06 55.3636 34.8944 55.9377 34.9884C56.5419 35.0874 56.9585 35.8172 56.4493 36.3906ZM52.3156 38.8489C51.0868 38.551 46.5518 37.8563 46.3336 36.3227C46.8776 36.2068 47.4767 36.6383 48.0313 36.7533C49.1267 36.98 50.2949 36.912 51.4065 37.0051C53.797 37.204 56.0021 38.0661 57.9126 39.4962C58.6502 40.0486 60.6673 42.0963 58.4093 41.314C56.3117 40.5869 54.5106 39.3808 52.3156 38.8489ZM32.808 13.8123C32.5907 12.104 33.4646 10.8304 33.7862 9.24974C33.8997 8.69094 34.0999 5.6059 32.372 6.10403C30.4578 6.65599 31.7353 9.55172 31.9851 10.7131C32.5634 13.4063 31.3202 15.6315 31.1181 18.1358C33.7227 17.3001 33.0286 15.5416 32.808 13.8123ZM22.3221 14.6799C22.6247 13.8296 21.0117 13.134 20.6721 13.7033C20.1943 14.5038 22.0793 15.3614 22.3221 14.6799ZM24.0236 17.2595C24.5754 16.4019 22.6279 16.0046 22.6604 15.8272C22.5468 16.4462 23.5542 17.9894 24.0236 17.2595ZM34.7083 1.96935C36.6118 1.88222 34.6054 0.0726171 33.0684 0.00328008C30.9073 -0.0947954 33.1824 2.0396 34.7083 1.96935ZM33.9511 4.68171C36.3435 4.82403 33.2311 2.83196 33.5707 2.78497C32.3882 2.94828 31.9146 4.56082 33.9511 4.68171ZM5.41953 51.3747C5.43621 51.7524 5.10491 51.8542 5.02845 52.1434C5.01965 52.1767 5.01409 52.2122 5.01316 52.251C5.00019 52.6962 5.578 52.9777 5.87919 53.131C6.40742 53.4001 7.61727 53.781 7.84292 53.3166C7.97869 53.037 7.63302 52.4198 7.40273 52.0918C6.99311 51.5093 6.23876 50.69 5.69477 50.6284C5.27774 50.5819 5.40193 50.9838 5.41953 51.3747ZM3.57396 55.441C3.72872 55.5879 3.91082 55.6818 4.0818 55.6723C4.46593 55.6508 4.71615 55.155 4.77082 54.744C4.8028 54.5008 4.8533 54.4132 5.02289 54.3051C5.15032 54.2239 5.54742 54.1532 5.50062 53.88C5.44224 53.536 5.08081 53.5324 4.92883 53.5775C4.62023 53.6688 4.52849 54.0187 4.39828 54.3211C4.28661 54.5802 4.0489 54.499 3.81352 54.4046C3.54338 54.296 3.27694 54.1706 3.20883 54.5236C3.16481 54.7522 3.25285 55.0131 3.39927 55.2298C3.28945 55.1294 3.15322 55.0469 2.98549 54.9985C2.05969 54.7321 2.27237 56.2032 3.15091 56.4226C3.71436 56.5631 3.87236 55.9218 3.57396 55.441ZM8.71914 52.059C9.51011 52.2565 9.50779 50.9094 8.55326 50.6348C7.62792 50.3684 7.84061 51.8391 8.71914 52.059ZM12.5303 51.7766C12.212 52.3304 11.8436 52.7159 11.39 53.1191C11.2486 53.245 10.175 54.0743 10.6616 54.3932C11.3464 54.8425 12.439 52.6693 12.7504 52.3135C13.1026 51.9116 13.5316 51.4158 13.6716 50.8041C13.1605 50.6239 12.7388 51.4135 12.5303 51.7766ZM11.4303 54.8174C11.0832 54.6258 10.5351 55.0199 11.0267 55.472C11.605 56.0034 11.3307 54.7622 11.4303 54.8174ZM14.2827 54.6153C14.6006 55.2298 14.9472 55.5559 15.2739 55.6713C16.5074 56.1065 17.4559 53.5356 15.4805 52.1224C14.121 51.1498 13.616 53.3257 14.2827 54.6153ZM14.1627 21.0918C13.9987 22.2158 12.4214 21.8809 12.6322 20.7122C12.6707 20.5001 12.7486 20.3464 12.8482 20.2369C12.6253 20.3478 12.3501 20.3578 12.0985 20.1991C11.7097 19.9536 11.8232 19.638 11.9182 19.31C12.0007 19.024 12.0688 18.7288 11.7783 18.4634C11.4396 18.1536 11.0522 17.8767 10.9271 17.4096C10.8654 17.1797 10.839 16.6807 11.2069 16.7468C11.4998 16.7988 11.6096 17.3795 11.7083 17.5912C11.8399 17.8722 11.9391 17.9794 12.2055 18.1281C12.6559 18.3794 13.2147 18.9387 13.2703 19.4806C13.2953 19.7219 13.2087 19.9336 13.0622 20.0855C13.5585 19.877 14.2679 20.371 14.1627 21.0918ZM58.4788 43.52C59.2633 43.5656 61.5361 43.3996 60.8128 44.7676C60.1325 46.054 58.799 45.1207 58.343 44.9547C56.9849 44.4611 57.3496 46.2123 56.137 46.5608C55.517 46.7392 55.4614 46.2379 54.821 46.9914C54.6269 47.22 54.498 47.5201 54.201 47.6588C53.8744 47.8112 53.5292 47.5826 53.3531 47.4868C52.6701 47.116 52.7831 46.4655 53.2131 45.5354C53.3591 45.2197 53.7979 44.6427 53.6672 44.4086C53.5301 44.1623 53.228 44.4679 52.9268 44.5473C52.6302 44.6253 52.2354 44.5551 52.2113 44.2992C52.1595 43.7458 53.2803 43.3152 53.5792 42.8691C53.9531 42.3107 53.0968 42.5096 52.8008 42.5315C52.3499 42.5644 51.5483 42.3956 52.4866 41.8386C53.057 41.5001 53.5709 41.5321 53.9731 41.6456C54.1755 41.7031 54.3294 41.8427 54.5365 41.887C54.8219 41.9472 54.8697 41.8724 55.2649 41.6958C56.0758 41.3332 56.2417 42.178 56.4395 42.542C56.7708 43.151 57.6415 43.4699 58.4723 43.5196C58.4746 43.5196 58.4765 43.5196 58.4788 43.52ZM4.16521 25.8322C3.18612 26.1402 0.666353 27.2924 0.077418 25.7807C-0.475838 24.3593 2.09305 24.581 2.80941 24.523C4.94227 24.3506 2.65789 22.9881 3.72779 22.1469C4.27503 21.7172 4.87091 22.1286 4.83338 21.1885C4.82226 20.9038 4.65776 20.5854 4.86303 20.3332C5.08962 20.0554 5.74064 20.1014 6.0511 20.1069C7.25353 20.127 7.80678 20.7433 8.27987 21.7432C8.44066 22.083 8.53055 22.78 8.93275 22.9256C9.35627 23.0793 9.39148 22.6792 9.66487 22.4767C9.93408 22.2773 10.4762 22.1633 10.7755 22.3754C11.4219 22.8343 10.548 23.7061 10.6653 24.227C10.8122 24.8784 11.6175 24.326 11.946 24.1754C12.4455 23.9469 13.5752 23.7384 13.0507 24.6398C12.7323 25.1868 12.0892 25.387 11.4914 25.4664C11.1912 25.5061 10.8608 25.4527 10.5684 25.5061C10.1658 25.5804 10.1889 25.6667 9.90674 25.9955C9.328 26.6707 8.23771 26.0088 7.61819 25.7798C6.58165 25.3961 5.21195 25.5047 4.17355 25.83C4.17077 25.8304 4.16799 25.8313 4.16521 25.8322ZM50.5465 12.702C49.8459 12.5077 49.9395 12.5464 49.364 12.9328C48.8149 13.3009 46.8544 14.6941 48.5114 14.913C49.1235 14.9938 49.4919 14.5134 50.0081 14.3136C50.4547 14.1412 51.4913 14.2954 51.8263 13.9861C52.6367 13.2357 51.0997 12.8557 50.5465 12.702ZM47.2038 16.1351C47.5745 15.3806 46.7696 14.9409 46.8442 14.2406C46.9262 13.4702 50.2958 11.1761 47.6352 10.8869C45.5635 10.6616 45.3767 13.9879 44.3865 15.1137C43.8852 15.683 41.744 17.5565 41.8751 18.4059C42.0642 19.6334 43.9417 17.7257 44.4417 17.4931C45.1854 17.1469 46.8039 16.948 47.2038 16.1351ZM37.2869 16.2788C37.6817 16.625 38.2678 16.7336 39.025 16.4006C40.9711 15.5444 40.4855 10.5498 37.6599 12.7143C36.476 13.6212 36.4232 15.5202 37.2869 16.2788ZM17.4855 45.2069C17.4137 44.6969 16.3934 44.1929 15.8003 44.2736C15.2072 44.3544 14.7841 44.8338 14.8559 45.3442C14.9273 45.8547 15.4666 46.2027 16.0597 46.122C16.6528 46.0413 17.5569 45.7174 17.4855 45.2069ZM12.9793 45.0993C11.3566 44.3019 8.56901 44.8607 8.07044 45.8437C7.57232 46.8272 8.48376 48.2705 10.1065 49.0679C11.7296 49.8648 13.4492 49.7143 13.9473 48.7313C14.4459 47.7482 14.602 45.8966 12.9793 45.0993ZM49.1842 33.9346C49.8463 34.0491 50.0512 34.0104 50.5266 33.4611C50.7689 33.1811 50.6753 32.8216 51.0659 32.5297C51.4695 32.2281 51.9167 32.3317 52.3606 32.2213C53.2247 32.0064 53.7706 31.6967 54.1199 30.7958C54.7033 29.2891 53.9698 27.3951 52.3221 26.9622C50.2708 26.423 49.3547 28.7348 48.1963 29.9021C47.4364 30.6676 46.5481 31.4198 45.6761 32.0571C45.3281 32.3116 42.5572 34.2946 44.6289 34.2321C45.5241 34.2051 45.993 33.7631 46.8159 33.6021C47.0462 33.5569 47.2779 33.5547 47.5096 33.5779C48.0744 33.6345 48.6384 33.8407 49.1842 33.9346ZM38.2711 51.1175C37.9101 50.9829 37.5658 50.8255 37.267 50.6408C36.5515 50.1983 35.9352 49.6272 35.0428 49.5327C34.193 49.4429 34.237 50.3324 34.1851 50.961C34.0804 52.2346 34.0869 53.7212 34.4446 54.9643C35.0521 57.0763 36.4843 57.9599 38.7335 57.4586C39.9021 57.1981 41.9645 56.4578 42.1615 55.1253C42.3779 53.6565 41.5975 51.9413 40.0175 51.606C39.4693 51.4892 38.8484 51.3328 38.2711 51.1175ZM8.78216 27.3317C6.46905 27.9808 4.61745 31.9211 6.04461 33.9866C7.31701 35.8286 9.34746 35.0801 10.2492 33.4771C10.6843 32.7039 10.9308 31.4472 11.7143 30.9335C12.2815 30.5618 13.6146 30.9545 13.9714 30.3642C14.8879 28.837 9.76635 27.0557 8.78216 27.3317ZM27.9733 20.8705C27.9918 21.6346 27.8889 22.4895 28.881 22.5086C28.1707 22.4949 32.5221 11.0676 26.8983 11.9936C22.4236 12.7316 27.5285 18.3872 27.9279 20.3765C27.9589 20.5293 27.9691 20.6977 27.9733 20.8705ZM24.91 24.1093C26.6314 23.7257 28.0154 26.9781 29.8819 25.0901C30.5792 24.3844 30.6112 21.3938 32.132 21.8864C32.7612 22.0903 32.3488 23.0551 33.2371 22.8594C33.8747 22.7194 33.9553 21.6442 34.0809 21.1816C34.3121 20.3304 34.0698 17.2413 35.0678 16.9389C37.033 16.3436 35.4436 19.9796 35.5052 20.6575C36.4941 20.8468 37.3026 20.2182 38.2414 20.1138C39.1394 20.0139 40.1889 20.2214 41.0452 20.4732C42.7027 20.9609 44.2943 21.9685 45.0644 23.5414C45.9759 25.4034 45.2609 27.0183 44.0789 28.5528C43.1595 29.747 40.8779 31.4713 41.2755 33.1528C41.5642 33.1605 41.7973 33.3558 42.0961 33.3466C42.5715 34.1536 41.4752 34.2102 41.6383 35.1188C41.7722 35.8656 42.9348 36.4846 43.261 37.1985C43.7527 38.2764 43.4376 38.5939 44.824 38.9109C45.5097 39.0679 46.9624 38.6838 47.3706 39.4013C47.9086 40.3469 46.4828 40.6576 46.6139 41.5362C48.1226 42.1848 49.4516 44.1313 49.7782 45.6768C50.2323 47.8258 48.9502 48.3723 47.3618 49.3179C46.2803 49.9615 46.7154 49.6167 46.6491 50.8688C46.5574 52.6077 45.5079 53.4188 43.9074 51.8295C42.8792 50.8082 42.5428 48.2464 41.099 47.6574C38.7233 46.6881 41.1555 49.6459 40.4415 50.446C39.5217 51.4778 38.8215 48.7869 38.4559 48.339C37.6539 47.3568 36.6173 47.2615 35.4886 46.6876C34.75 46.3122 33.7343 45.0423 33.1894 46.5549C32.6139 48.1533 34.1638 47.9407 32.2371 48.5251C31.139 48.8581 31.1204 48.88 30.6928 49.8292C30.5 50.2567 30.7317 50.6513 30.437 51.1498C30.19 51.5677 29.6103 51.7698 29.2934 52.1388C28.7828 52.7336 28.5803 53.458 28.147 54.1021C27.3 55.3607 26.0712 56.1125 24.5092 55.6581C22.1914 54.9834 23.3582 52.5694 23.9791 51.0887C24.2979 50.3278 24.8567 49.3434 24.1561 48.5867C23.4328 47.8052 22.7609 48.1679 22.3226 48.9288C21.7619 49.9022 22.3972 51.0559 21.3898 51.9326C20.527 52.6839 18.8691 52.7227 18.2908 51.6192C17.4906 50.0915 19.2431 48.4265 20.1327 47.371C20.5423 46.8847 21.3351 46.3747 21.0275 45.6467C20.8741 45.284 19.5132 44.7394 19.3478 45.2275C19.6786 44.2522 20.4798 42.9024 19.4469 42.3536C19.1198 42.1803 18.3464 42.5612 17.8937 42.3969C17.4318 42.2295 17.3136 41.5613 16.796 41.4372C15.9115 41.2251 14.6822 42.1141 13.7156 42.157C12.5882 42.2063 10.6027 42.1274 9.75893 41.2885C7.14417 38.6874 13.7137 36.428 15.3221 35.7306C16.1149 35.3871 17.8164 34.7343 17.0601 33.7882C16.4587 33.036 14.5756 33.8753 15.8077 32.1141C16.2956 31.4166 18.6462 31.3108 18.6967 30.5827C18.7588 29.6877 17.2399 29.8483 17.2988 28.759C17.3576 27.6669 19.0633 27.6259 18.2779 26.4107C17.9688 25.9321 15.4977 25.2237 16.739 24.0888C17.5152 23.3794 18.5068 25.1019 19.4474 25.0609C20.2787 25.0244 18.5781 21.979 18.4396 21.7687C17.5958 20.4883 16.6403 19.2899 16.7599 17.6423C16.8748 16.0639 17.8177 15.8048 19.0447 16.8139C21.2086 18.5934 20.4765 24.7967 24.2886 24.2247C24.5361 24.1878 24.739 24.1472 24.91 24.1093Z" fill="url(#paint0_linear_0_171)"/>
</g>
<path fill-rule="evenodd" clip-rule="evenodd" d="M25.8281 39H33.2695C35.8789 39 37.8086 37.9258 39.0586 35.7773C39.9805 34.1836 40.4414 32.2383 40.4414 29.9414C40.4414 29.0352 40.332 28.082 40.1133 27.082C39.8945 26.082 39.4844 25.1523 38.8828 24.293C38.1328 23.2305 37.1523 22.5 35.9414 22.1016C35.2305 21.8672 34.3398 21.7422 33.2695 21.7266H25.8281V39ZM32.6602 24.7266C34.3008 24.7266 35.3984 25.1953 35.9531 26.1328C36.5 27.0781 36.7734 28.4297 36.7734 30.1875C36.7734 31.4609 36.5898 32.5586 36.2227 33.4805C35.5508 35.1602 34.3633 36 32.6602 36H29.332V24.7266H32.6602Z" fill="white"/>
<path d="M49.3125 29.3086C47.9688 29.3086 47.0664 29.7461 46.6055 30.6211C46.3477 31.1133 46.2188 31.8711 46.2188 32.8945V39H42.8555V26.2266H46.043V28.4531C46.5586 27.6016 47.0078 27.0195 47.3906 26.707C48.0156 26.1836 48.8281 25.9219 49.8281 25.9219C49.8906 25.9219 49.9434 25.9238 49.9863 25.9277C50.0293 25.9316 50.125 25.9375 50.2734 25.9453V29.3672C50.0625 29.3438 49.875 29.3281 49.7109 29.3203C49.5469 29.3125 49.4141 29.3086 49.3125 29.3086Z" fill="white"/>
<path fill-rule="evenodd" clip-rule="evenodd" d="M61.9805 37.5586C62.6836 36.7773 63.0781 36.0078 63.1641 35.25H59.7539C59.5742 35.625 59.3672 35.918 59.1328 36.1289C58.7031 36.5195 58.1445 36.7148 57.457 36.7148C56.8086 36.7148 56.2539 36.5547 55.793 36.2344C55.0352 35.7188 54.6328 34.8203 54.5859 33.5391H63.3281C63.3438 32.4375 63.3086 31.5938 63.2227 31.0078C63.0742 30.0078 62.75 29.1289 62.25 28.3711C61.6953 27.5117 60.9922 26.8828 60.1406 26.4844C59.2891 26.0859 58.332 25.8867 57.2695 25.8867C55.4805 25.8867 54.0254 26.4766 52.9043 27.6562C51.7832 28.8359 51.2227 30.5312 51.2227 32.7422C51.2227 35.1016 51.8438 36.8047 53.0859 37.8516C54.3281 38.8984 55.7617 39.4219 57.3867 39.4219C59.3555 39.4219 60.8867 38.8008 61.9805 37.5586ZM59.0566 29.3262C59.5371 29.7832 59.8047 30.4531 59.8594 31.3359H54.668C54.7773 30.5078 55.0449 29.8516 55.4707 29.3672C55.8965 28.8828 56.4961 28.6406 57.2695 28.6406C57.9805 28.6406 58.5762 28.8691 59.0566 29.3262Z" fill="white"/>
<path fill-rule="evenodd" clip-rule="evenodd" d="M70.6055 25.9219C68.457 25.9219 66.9414 26.4844 66.0586 27.6094C65.5039 28.3281 65.1914 29.2461 65.1211 30.3633H68.3438C68.4219 29.8711 68.5781 29.4805 68.8125 29.1914C69.1406 28.8008 69.6992 28.6055 70.4883 28.6055C71.1914 28.6055 71.7246 28.7051 72.0879 28.9043C72.4512 29.1035 72.6328 29.4648 72.6328 29.9883C72.6328 30.418 72.3945 30.7344 71.918 30.9375C71.6523 31.0547 71.2109 31.1523 70.5938 31.2305L69.457 31.3711C68.168 31.5352 67.1914 31.8086 66.5273 32.1914C65.3164 32.8945 64.7109 34.0312 64.7109 35.6016C64.7109 36.8125 65.0879 37.748 65.8418 38.4082C66.5957 39.0684 67.5508 39.3984 68.707 39.3984C69.6133 39.3984 70.4258 39.1914 71.1445 38.7773C71.7461 38.4258 72.2773 38 72.7383 37.5C72.7617 37.7891 72.793 38.0469 72.832 38.2734C72.8711 38.5 72.9414 38.7422 73.043 39H76.6758V38.5078C76.457 38.4062 76.293 38.2773 76.1836 38.1211C76.0742 37.9648 76.0078 37.668 75.9844 37.2305C75.9688 36.6523 75.9609 36.1602 75.9609 35.7539V29.8945C75.9609 28.3555 75.418 27.3086 74.332 26.7539C73.2461 26.1992 72.0039 25.9219 70.6055 25.9219ZM69.6914 36.9727C69.2383 36.9727 68.8555 36.8438 68.543 36.5859C68.2227 36.3359 68.0625 35.9258 68.0625 35.3555C68.0625 34.7148 68.3203 34.2422 68.8359 33.9375C69.1406 33.7578 69.6445 33.6055 70.3477 33.4805L71.0977 33.3398C71.4727 33.2695 71.7676 33.1934 71.9824 33.1113C72.1973 33.0293 72.4102 32.9219 72.6211 32.7891V34.0312C72.5977 35.1484 72.2832 35.918 71.6777 36.3398C71.0723 36.7617 70.4102 36.9727 69.6914 36.9727Z" fill="white"/>
<path fill-rule="evenodd" clip-rule="evenodd" d="M90.5508 39V21.75H87.1641V27.8438C86.7891 27.2422 86.3008 26.7715 85.6992 26.4316C85.0977 26.0918 84.4102 25.9219 83.6367 25.9219C81.957 25.9219 80.6152 26.5469 79.6113 27.7969C78.6074 29.0469 78.1055 30.7617 78.1055 32.9414C78.1055 34.832 78.6152 36.3809 79.6348 37.5879C80.6543 38.7949 81.9102 39.3984 83.4023 39.3984C84.3086 39.3984 85.0664 39.2266 85.6758 38.8828C86.2852 38.5391 86.8281 37.9883 87.3047 37.2305V39H90.5508ZM82.2539 35.5195C81.7852 34.8164 81.5508 33.875 81.5508 32.6953C81.5508 31.6016 81.7793 30.6855 82.2363 29.9473C82.6934 29.209 83.4102 28.8398 84.3867 28.8398C85.0273 28.8398 85.5898 29.043 86.0742 29.4492C86.8633 30.1211 87.2578 31.2383 87.2578 32.8008C87.2578 33.918 87.0117 34.8281 86.5195 35.5312C86.0273 36.2344 85.3086 36.5859 84.3633 36.5859C83.418 36.5859 82.7148 36.2305 82.2539 35.5195Z" fill="white"/>
<path d="M99.5742 21.6211V24.3398C99.3867 24.3164 99.0723 24.2988 98.6309 24.2871C98.1895 24.2754 97.8848 24.373 97.7168 24.5801C97.5488 24.7871 97.4648 25.0156 97.4648 25.2656V26.3438H99.6562V28.6992H97.4648V39H94.1367V28.6992H92.2734V26.3438H94.1016V25.5234C94.1016 24.1562 94.332 23.2148 94.793 22.6992C95.2773 21.9336 96.4453 21.5508 98.2969 21.5508C98.5078 21.5508 98.6992 21.5566 98.8711 21.5684C99.043 21.5801 99.2773 21.5977 99.5742 21.6211Z" fill="white"/>
<path d="M109.77 37.1953C109.738 37.2344 109.66 37.3516 109.535 37.5469C109.41 37.7422 109.262 37.9141 109.09 38.0625C108.566 38.5312 108.061 38.8516 107.572 39.0234C107.084 39.1953 106.512 39.2812 105.855 39.2812C103.965 39.2812 102.691 38.6016 102.035 37.2422C101.668 36.4922 101.484 35.3867 101.484 33.9258V26.2266H104.906V33.9258C104.906 34.6523 104.992 35.1992 105.164 35.5664C105.469 36.2148 106.066 36.5391 106.957 36.5391C108.098 36.5391 108.879 36.0781 109.301 35.1562C109.52 34.6562 109.629 33.9961 109.629 33.1758V26.2266H113.016V39H109.77V37.1953Z" fill="white"/>
<path d="M116.309 21.7266H119.648V39H116.309V21.7266Z" fill="white"/>
<path d="M142.031 37.7109C140.742 38.8906 139.094 39.4805 137.086 39.4805C134.602 39.4805 132.648 38.6836 131.227 37.0898C129.805 35.4883 129.094 33.293 129.094 30.5039C129.094 27.4883 129.902 25.1641 131.52 23.5312C132.926 22.1094 134.715 21.3984 136.887 21.3984C139.793 21.3984 141.918 22.3516 143.262 24.2578C144.004 25.3281 144.402 26.4023 144.457 27.4805H140.848C140.613 26.6523 140.312 26.0273 139.945 25.6055C139.289 24.8555 138.316 24.4805 137.027 24.4805C135.715 24.4805 134.68 25.0098 133.922 26.0684C133.164 27.127 132.785 28.625 132.785 30.5625C132.785 32.5 133.186 33.9512 133.986 34.916C134.787 35.8809 135.805 36.3633 137.039 36.3633C138.305 36.3633 139.27 35.9492 139.934 35.1211C140.301 34.6758 140.605 34.0078 140.848 33.1172H144.422C144.109 35 143.312 36.5312 142.031 37.7109Z" fill="white"/>
<path d="M158.449 31.5V39H155.039V31.2305C155.039 30.543 154.922 29.9883 154.688 29.5664C154.383 28.9727 153.805 28.6758 152.953 28.6758C152.07 28.6758 151.4 28.9707 150.943 29.5605C150.486 30.1504 150.258 30.9922 150.258 32.0859V39H146.93V21.7852H150.258V27.8906C150.742 27.1484 151.303 26.6309 151.939 26.3379C152.576 26.0449 153.246 25.8984 153.949 25.8984C154.738 25.8984 155.455 26.0352 156.1 26.3086C156.744 26.582 157.273 27 157.688 27.5625C158.039 28.0391 158.254 28.5293 158.332 29.0332C158.41 29.5371 158.449 30.3594 158.449 31.5Z" fill="white"/>
<path fill-rule="evenodd" clip-rule="evenodd" d="M171.316 37.5586C172.02 36.7773 172.414 36.0078 172.5 35.25H169.09C168.91 35.625 168.703 35.918 168.469 36.1289C168.039 36.5195 167.48 36.7148 166.793 36.7148C166.145 36.7148 165.59 36.5547 165.129 36.2344C164.371 35.7188 163.969 34.8203 163.922 33.5391H172.664C172.68 32.4375 172.645 31.5938 172.559 31.0078C172.41 30.0078 172.086 29.1289 171.586 28.3711C171.031 27.5117 170.328 26.8828 169.477 26.4844C168.625 26.0859 167.668 25.8867 166.605 25.8867C164.816 25.8867 163.361 26.4766 162.24 27.6562C161.119 28.8359 160.559 30.5312 160.559 32.7422C160.559 35.1016 161.18 36.8047 162.422 37.8516C163.664 38.8984 165.098 39.4219 166.723 39.4219C168.691 39.4219 170.223 38.8008 171.316 37.5586ZM168.393 29.3262C168.873 29.7832 169.141 30.4531 169.195 31.3359H164.004C164.113 30.5078 164.381 29.8516 164.807 29.3672C165.232 28.8828 165.832 28.6406 166.605 28.6406C167.316 28.6406 167.912 28.8691 168.393 29.3262Z" fill="white"/>
<path d="M181.336 29.3086C179.992 29.3086 179.09 29.7461 178.629 30.6211C178.371 31.1133 178.242 31.8711 178.242 32.8945V39H174.879V26.2266H178.066V28.4531C178.582 27.6016 179.031 27.0195 179.414 26.707C180.039 26.1836 180.852 25.9219 181.852 25.9219C181.914 25.9219 181.967 25.9238 182.01 25.9277C182.053 25.9316 182.148 25.9375 182.297 25.9453V29.3672C182.086 29.3438 181.898 29.3281 181.734 29.3203C181.57 29.3125 181.438 29.3086 181.336 29.3086Z" fill="white"/>
<path d="M190.676 29.3086C189.332 29.3086 188.43 29.7461 187.969 30.6211C187.711 31.1133 187.582 31.8711 187.582 32.8945V39H184.219V26.2266H187.406V28.4531C187.922 27.6016 188.371 27.0195 188.754 26.707C189.379 26.1836 190.191 25.9219 191.191 25.9219C191.254 25.9219 191.307 25.9238 191.35 25.9277C191.393 25.9316 191.488 25.9375 191.637 25.9453V29.3672C191.426 29.3438 191.238 29.3281 191.074 29.3203C190.91 29.3125 190.777 29.3086 190.676 29.3086Z" fill="white"/>
<path d="M198.785 35.6484L201.422 26.2266H204.973L200.59 38.7891C199.746 41.2109 199.078 42.7129 198.586 43.2949C198.094 43.877 197.109 44.168 195.633 44.168C195.336 44.168 195.098 44.166 194.918 44.1621C194.738 44.1582 194.469 44.1445 194.109 44.1211V41.4492L194.531 41.4727C194.859 41.4883 195.172 41.4766 195.469 41.4375C195.766 41.3984 196.016 41.3086 196.219 41.168C196.414 41.0352 196.596 40.7578 196.764 40.3359C196.932 39.9141 197 39.6562 196.969 39.5625L192.281 26.2266H195.996L198.785 35.6484Z" fill="white"/>
<path d="M226.43 21.7266V24.7852H221.262V39H217.629V24.7852H212.438V21.7266H226.43Z" fill="white"/>
<path fill-rule="evenodd" clip-rule="evenodd" d="M240.539 32.6367C240.539 30.793 240 29.1953 238.922 27.8438C237.844 26.4922 236.207 25.8164 234.012 25.8164C231.816 25.8164 230.18 26.4922 229.102 27.8438C228.023 29.1953 227.484 30.793 227.484 32.6367C227.484 34.5117 228.023 36.1152 229.102 37.4473C230.18 38.7793 231.816 39.4453 234.012 39.4453C236.207 39.4453 237.844 38.7793 238.922 37.4473C240 36.1152 240.539 34.5117 240.539 32.6367ZM231.744 29.6777C232.271 28.9863 233.023 28.6406 234 28.6406C234.977 28.6406 235.727 28.9863 236.25 29.6777C236.773 30.3691 237.035 31.3555 237.035 32.6367C237.035 33.918 236.773 34.9062 236.25 35.6016C235.727 36.2969 234.977 36.6445 234 36.6445C233.023 36.6445 232.271 36.2969 231.744 35.6016C231.217 34.9062 230.953 33.918 230.953 32.6367C230.953 31.3555 231.217 30.3691 231.744 29.6777Z" fill="white"/>
<path d="M250.102 29.7422C249.82 29.125 249.27 28.8164 248.449 28.8164C247.496 28.8164 246.855 29.125 246.527 29.7422C246.348 30.0938 246.258 30.6172 246.258 31.3125V39H242.871V26.25H246.117V28.1133C246.531 27.4492 246.922 26.9766 247.289 26.6953C247.938 26.1953 248.777 25.9453 249.809 25.9453C250.785 25.9453 251.574 26.1602 252.176 26.5898C252.66 26.9883 253.027 27.5 253.277 28.125C253.715 27.375 254.258 26.8242 254.906 26.4727C255.594 26.1211 256.359 25.9453 257.203 25.9453C257.766 25.9453 258.32 26.0547 258.867 26.2734C259.414 26.4922 259.91 26.875 260.355 27.4219C260.715 27.8672 260.957 28.4141 261.082 29.0625C261.16 29.4922 261.199 30.1211 261.199 30.9492L261.176 39H257.754V30.8672C257.754 30.3828 257.676 29.9844 257.52 29.6719C257.223 29.0781 256.676 28.7812 255.879 28.7812C254.957 28.7812 254.32 29.1641 253.969 29.9297C253.789 30.3359 253.699 30.8242 253.699 31.3945V39H250.336V31.3945C250.336 30.6367 250.258 30.0859 250.102 29.7422Z" fill="white"/>
<path fill-rule="evenodd" clip-rule="evenodd" d="M269.297 25.9219C267.148 25.9219 265.633 26.4844 264.75 27.6094C264.195 28.3281 263.883 29.2461 263.812 30.3633H267.035C267.113 29.8711 267.27 29.4805 267.504 29.1914C267.832 28.8008 268.391 28.6055 269.18 28.6055C269.883 28.6055 270.416 28.7051 270.779 28.9043C271.143 29.1035 271.324 29.4648 271.324 29.9883C271.324 30.418 271.086 30.7344 270.609 30.9375C270.344 31.0547 269.902 31.1523 269.285 31.2305L268.148 31.3711C266.859 31.5352 265.883 31.8086 265.219 32.1914C264.008 32.8945 263.402 34.0312 263.402 35.6016C263.402 36.8125 263.779 37.748 264.533 38.4082C265.287 39.0684 266.242 39.3984 267.398 39.3984C268.305 39.3984 269.117 39.1914 269.836 38.7773C270.438 38.4258 270.969 38 271.43 37.5C271.453 37.7891 271.484 38.0469 271.523 38.2734C271.562 38.5 271.633 38.7422 271.734 39H275.367V38.5078C275.148 38.4062 274.984 38.2773 274.875 38.1211C274.766 37.9648 274.699 37.668 274.676 37.2305C274.66 36.6523 274.652 36.1602 274.652 35.7539V29.8945C274.652 28.3555 274.109 27.3086 273.023 26.7539C271.938 26.1992 270.695 25.9219 269.297 25.9219ZM268.383 36.9727C267.93 36.9727 267.547 36.8438 267.234 36.5859C266.914 36.3359 266.754 35.9258 266.754 35.3555C266.754 34.7148 267.012 34.2422 267.527 33.9375C267.832 33.7578 268.336 33.6055 269.039 33.4805L269.789 33.3398C270.164 33.2695 270.459 33.1934 270.674 33.1113C270.889 33.0293 271.102 32.9219 271.312 32.7891V34.0312C271.289 35.1484 270.975 35.918 270.369 36.3398C269.764 36.7617 269.102 36.9727 268.383 36.9727Z" fill="white"/>
<path d="M283.465 36.6211V39.1172L281.883 39.1758C280.305 39.2305 279.227 38.957 278.648 38.3555C278.273 37.9727 278.086 37.3828 278.086 36.5859V28.7227H276.305V26.3438H278.086V22.7812H281.391V26.3438H283.465V28.7227H281.391V35.4727C281.391 35.9961 281.457 36.3223 281.59 36.4512C281.723 36.5801 282.129 36.6445 282.809 36.6445C282.91 36.6445 283.018 36.6426 283.131 36.6387C283.244 36.6348 283.355 36.6289 283.465 36.6211Z" fill="white"/>
<path fill-rule="evenodd" clip-rule="evenodd" d="M297.879 32.6367C297.879 30.793 297.34 29.1953 296.262 27.8438C295.184 26.4922 293.547 25.8164 291.352 25.8164C289.156 25.8164 287.52 26.4922 286.441 27.8438C285.363 29.1953 284.824 30.793 284.824 32.6367C284.824 34.5117 285.363 36.1152 286.441 37.4473C287.52 38.7793 289.156 39.4453 291.352 39.4453C293.547 39.4453 295.184 38.7793 296.262 37.4473C297.34 36.1152 297.879 34.5117 297.879 32.6367ZM289.084 29.6777C289.611 28.9863 290.363 28.6406 291.34 28.6406C292.316 28.6406 293.066 28.9863 293.59 29.6777C294.113 30.3691 294.375 31.3555 294.375 32.6367C294.375 33.918 294.113 34.9062 293.59 35.6016C293.066 36.2969 292.316 36.6445 291.34 36.6445C290.363 36.6445 289.611 36.2969 289.084 35.6016C288.557 34.9062 288.293 33.918 288.293 32.6367C288.293 31.3555 288.557 30.3691 289.084 29.6777Z" fill="white"/>
<path fill-rule="evenodd" clip-rule="evenodd" d="M310.02 37.5586C310.723 36.7773 311.117 36.0078 311.203 35.25H307.793C307.613 35.625 307.406 35.918 307.172 36.1289C306.742 36.5195 306.184 36.7148 305.496 36.7148C304.848 36.7148 304.293 36.5547 303.832 36.2344C303.074 35.7188 302.672 34.8203 302.625 33.5391H311.367C311.383 32.4375 311.348 31.5938 311.262 31.0078C311.113 30.0078 310.789 29.1289 310.289 28.3711C309.734 27.5117 309.031 26.8828 308.18 26.4844C307.328 26.0859 306.371 25.8867 305.309 25.8867C303.52 25.8867 302.064 26.4766 300.943 27.6562C299.822 28.8359 299.262 30.5312 299.262 32.7422C299.262 35.1016 299.883 36.8047 301.125 37.8516C302.367 38.8984 303.801 39.4219 305.426 39.4219C307.395 39.4219 308.926 38.8008 310.02 37.5586ZM307.096 29.3262C307.576 29.7832 307.844 30.4531 307.898 31.3359H302.707C302.816 30.5078 303.084 29.8516 303.51 29.3672C303.936 28.8828 304.535 28.6406 305.309 28.6406C306.02 28.6406 306.615 28.8691 307.096 29.3262Z" fill="white"/>
<path d="M322.418 26.8125C323.418 27.4531 323.992 28.5547 324.141 30.1172H320.801C320.754 29.6875 320.633 29.3477 320.438 29.0977C320.07 28.6445 319.445 28.418 318.562 28.418C317.836 28.418 317.318 28.5312 317.01 28.7578C316.701 28.9844 316.547 29.25 316.547 29.5547C316.547 29.9375 316.711 30.2148 317.039 30.3867C317.367 30.5664 318.527 30.875 320.52 31.3125C321.848 31.625 322.844 32.0977 323.508 32.7305C324.164 33.3711 324.492 34.1719 324.492 35.1328C324.492 36.3984 324.021 37.4316 323.08 38.2324C322.139 39.0332 320.684 39.4336 318.715 39.4336C316.707 39.4336 315.225 39.0098 314.268 38.1621C313.311 37.3145 312.832 36.2344 312.832 34.9219H316.219C316.289 35.5156 316.441 35.9375 316.676 36.1875C317.09 36.6328 317.855 36.8555 318.973 36.8555C319.629 36.8555 320.15 36.7578 320.537 36.5625C320.924 36.3672 321.117 36.0742 321.117 35.6836C321.117 35.3086 320.961 35.0234 320.648 34.8281C320.336 34.6328 319.176 34.2969 317.168 33.8203C315.723 33.4609 314.703 33.0117 314.109 32.4727C313.516 31.9414 313.219 31.1758 313.219 30.1758C313.219 28.9961 313.682 27.9824 314.607 27.1348C315.533 26.2871 316.836 25.8633 318.516 25.8633C320.109 25.8633 321.41 26.1797 322.418 26.8125Z" fill="white"/>
<defs>
<linearGradient id="paint0_linear_0_171" x1="1.58441" y1="-1.05137" x2="1.58441" y2="54.7836" gradientUnits="userSpaceOnUse">
<stop stop-color="#E14221"/>
<stop offset="1" stop-color="#C02121"/>
</linearGradient>
</defs>
</svg>
